<svg width="24" height="24" viewBox="0 0 24 24" fill="none" xmlns="http://www.w3.org/2000/svg">
<path fill-rule="evenodd" clip-rule="evenodd" d="M13.3974 5.33629C14.4142 4.20914 16.2832 4.98375 16.2065 6.49941C16.1569 7.45389 16.9443 8.24209 17.8996 8.19333C19.4153 8.11579 20.1899 9.98478 19.0627 11.0024C18.3529 11.6427 18.3529 12.7563 19.0627 13.3974C20.1899 14.4142 19.4153 16.2832 17.8996 16.2065C16.9443 16.1569 16.1569 16.9443 16.2065 17.8996C16.2832 19.4153 14.4142 20.1899 13.3974 19.0635C12.7563 18.3529 11.6427 18.3529 11.0024 19.0635C9.98398 20.1899 8.11579 19.4153 8.19333 17.8996C8.24209 16.9443 7.45389 16.1569 6.49941 16.2065C4.98375 16.2832 4.20914 14.4142 5.33629 13.3974C6.04615 12.7563 6.04615 11.6427 5.33629 11.0024C4.20914 9.98478 4.98375 8.11579 6.49941 8.19333C7.45389 8.24209 8.24209 7.45389 8.19333 6.49941C8.11579 4.98375 9.98398 4.20914 11.0024 5.33629C11.6427 6.04615 12.7563 6.04615 13.3974 5.33629Z" fill="url(#paint0_linear_310_3907)"/>
<path d="M13.3974 5.33629V5.33629C14.4142 4.20914 16.2832 4.98375 16.2065 6.49941C16.1569 7.45389 16.9443 8.24209 17.8996 8.19333C19.4153 8.11579 20.1899 9.98478 19.0627 11.0024C18.3529 11.6427 18.3529 12.7563 19.0627 13.3974C20.1899 14.4142 19.4153 16.2832 17.8996 16.2065C16.9443 16.1569 16.1569 16.9443 16.2065 17.8996C16.2832 19.4153 14.4142 20.1899 13.3974 19.0635C12.7563 18.3529 11.6427 18.3529 11.0024 19.0635C9.98398 20.1899 8.11579 19.4153 8.19333 17.8996C8.24209 16.9443 7.45389 16.1569 6.49941 16.2065C4.98375 16.2832 4.20914 14.4142 5.33629 13.3974C6.04615 12.7563 6.04615 11.6427 5.33629 11.0024C4.20914 9.98478 4.98375 8.11579 6.49941 8.19333C7.45389 8.24209 8.24209 7.45389 8.19333 6.49941C8.11579 4.98375 9.98398 4.20914 11.0024 5.33629C11.6427 6.04615 12.7563 6.04615 13.3974 5.33629" stroke="url(#paint1_linear_310_3907)" stroke-width="1.2"/>
<path d="M14.5678 9.06411C14.7927 8.83917 15.1574 8.83917 15.3824 9.06411C15.5698 9.25156 15.6011 9.53607 15.4761 9.75587L15.3824 9.87869L9.90412 15.357C9.67917 15.5819 9.31447 15.5819 9.08953 15.357C8.90208 15.1695 8.87084 14.885 8.9958 14.6652L9.08953 14.5424L14.5678 9.06411Z" fill="white" stroke="white" stroke-width="0.36"/>
<path d="M10.7843 8.89541C10.2941 8.89541 9.89706 9.29192 9.89706 9.78214C9.89706 10.272 10.2942 10.6689 10.7843 10.6689C11.274 10.6689 11.671 10.2719 11.671 9.78214C11.671 9.29205 11.2741 8.89541 10.7843 8.89541Z" fill="white" stroke="white" stroke-width="0.36"/>
<path d="M13.615 13.7522C13.1248 13.7522 12.7278 14.1487 12.7278 14.6389C12.7278 15.1288 13.1249 15.5257 13.615 15.5257C14.1047 15.5257 14.5017 15.1287 14.5017 14.6389C14.5017 14.1489 14.1048 13.7522 13.615 13.7522Z" fill="white" stroke="white" stroke-width="0.36"/>
<defs>
<linearGradient id="paint0_linear_310_3907" x1="19.599" y1="4.8" x2="4.79976" y2="19.599" gradientUnits="userSpaceOnUse">
<stop stop-color="#3023AE"/>
<stop offset="1" stop-color="#C86DD7"/>
</linearGradient>
<linearGradient id="paint1_linear_310_3907" x1="19.599" y1="4.8" x2="4.79976" y2="19.599" gradientUnits="userSpaceOnUse">
<stop stop-color="#3023AE"/>
<stop offset="1" stop-color="#C86DD7"/>
</linearGradient>
</defs>
</svg>
